Coordinates
version=1
nRows=18
nColumns=63
inDegrees=yes

Units are S.I. units (second, meters, Newtons, ...)
If the header above contains a line with 'inDegrees', this indicates whether rotational values are in degrees (yes) or radians (no).

endheader
time	pelvis_tilt	pelvis_list	pelvis_rotation	pelvis_tx	pelvis_ty	pelvis_tz	hip_flexion_r	hip_adduction_r	hip_rotation_r	knee_angle_r	knee_angle_r_beta	ankle_angle_r	subtalar_angle_r	mtp_angle_r	hip_flexion_l	hip_adduction_l	hip_rotation_l	knee_angle_l	knee_angle_l_beta	ankle_angle_l	subtalar_angle_l	mtp_angle_l	L5_S1_Flex_Ext	L5_S1_Lat_Bending	L5_S1_axial_rotation	L4_L5_Flex_Ext	L4_L5_Lat_Bending	L4_L5_axial_rotation	L3_L4_Flex_Ext	L3_L4_Lat_Bending	L3_L4_axial_rotation	L2_L3_Flex_Ext	L2_L3_Lat_Bending	L2_L3_axial_rotation	L1_L2_Flex_Ext	L1_L2_Lat_Bending	L1_L2_axial_rotation	L1_T12_Flex_Ext	L1_T12_Lat_Bending	L1_T12_axial_rotation	Abs_r3	Abs_r2	Abs_r1	Abs_t1	Abs_t2	neck_flexion	neck_bending	neck_rotation	arm_flex_r	arm_add_r	arm_rot_r	elbow_flex_r	pro_sup_r	wrist_flex_r	wrist_dev_r	arm_flex_l	arm_add_l	arm_rot_l	elbow_flex_l	pro_sup_l	wrist_flex_l	wrist_dev_l
7.250000	-1.892663	2.406774	96.246390	0.205111	1.109106	0.462221	-1.027070	-0.011516	1.164802	8.494709	0.148261	21.933342	7.976361	0.000000	-1.409259	-1.934452	-11.737526	8.011655	0.139830	19.679699	14.308335	0.000000	0.084117	-0.681540	1.585155	0.156214	-0.906448	1.684227	0.138196	-1.657095	1.684227	0.096137	-1.657095	1.387011	0.078111	-1.389795	1.287939	0.048065	-1.055705	1.188866	0.600840	-7.709711	8.816158	0.000000	0.000000	6.345609	2.056035	6.403755	110.492729	-2.820886	51.189189	62.988300	88.646247	-4.668118	6.516836	8.820896	-10.657836	0.873925	102.152734	87.604719	-11.774724	4.009198
7.272727	-1.758540	2.273539	96.736265	0.204988	1.108563	0.461900	-1.220729	0.148411	0.810098	7.925025	0.138318	21.783741	8.194776	0.000000	-1.314321	-2.081365	-11.415774	7.789781	0.135957	19.703912	14.404317	0.000000	0.115645	-0.745519	1.749456	0.214764	-0.991540	1.858797	0.189993	-1.812654	1.858797	0.132170	-1.812654	1.530774	0.107388	-1.520262	1.421433	0.066079	-1.154809	1.312092	0.826039	-8.433458	9.729949	0.000000	0.000000	6.294129	2.710100	5.838661	109.038511	-2.432595	54.778208	63.736187	89.057303	-4.685718	7.236021	9.063861	-10.330593	0.205208	101.998510	86.504221	-11.380013	2.331801
7.295455	-1.627202	2.122498	97.305370	0.204499	1.108058	0.461638	-1.371928	0.288888	0.399219	7.419586	0.129496	21.594930	8.307601	0.000000	-1.189278	-2.204192	-11.013121	7.568730	0.132099	19.633642	14.475853	0.000000	0.145471	-0.806059	1.908756	0.270154	-1.072059	2.028053	0.238995	-1.959853	2.028053	0.166259	-1.959853	1.670161	0.135085	-1.643716	1.550864	0.083122	-1.248586	1.431567	1.039086	-9.118305	10.615927	0.000000	0.000000	6.342290	3.004265	5.256472	106.256195	-2.855022	56.768088	65.293604	91.119155	-4.705946	7.916503	9.722044	-10.203034	-0.279697	102.345560	85.074602	-10.983158	1.030558
7.318182	-1.483472	1.963744	97.926920	0.203656	1.107586	0.461481	-1.473579	0.424874	-0.037578	6.998498	0.122147	21.391553	8.304655	0.000000	-1.036617	-2.318521	-10.541456	7.362035	0.128492	19.502850	14.533592	0.000000	0.173120	-0.859237	2.040493	0.321501	-1.142785	2.168023	0.284419	-2.089149	2.168023	0.197859	-2.089149	1.785431	0.160759	-1.752156	1.657900	0.098921	-1.330958	1.530369	1.236579	-9.719859	11.348608	0.000000	0.000000	6.542880	2.891848	4.855681	102.665088	-3.899502	57.472474	67.490383	91.899981	-4.923193	8.621049	10.657720	-10.297037	-0.733235	103.221189	83.654906	-10.652395	0.270575
7.340909	-1.339559	1.816862	98.575516	0.202509	1.107142	0.461489	-1.533096	0.548026	-0.480047	6.681134	0.116608	21.194857	8.181361	0.000000	-0.874535	-2.416580	-10.021934	7.178866	0.125295	19.336292	14.573166	0.000000	0.193612	-0.905851	2.133252	0.359557	-1.204782	2.266580	0.318085	-2.202486	2.266580	0.221279	-2.202486	1.866595	0.179788	-1.847211	1.733267	0.110630	-1.403163	1.599939	1.382951	-10.247167	11.864505	0.000000	0.000000	6.959283	2.379419	4.616929	98.686165	-5.348457	57.004468	70.100296	91.508441	-5.325767	9.419186	11.814261	-10.567284	-1.236193	104.543573	82.397043	-10.354730	0.027342
7.363636	-1.191998	1.664049	99.253987	0.201083	1.106699	0.461660	-1.524307	0.659336	-0.959664	6.479996	0.113097	21.024960	7.988233	0.000000	-0.680279	-2.504479	-9.450523	7.024620	0.122603	19.149504	14.607766	0.000000	0.208181	-0.945538	2.172909	0.386613	-1.257566	2.308716	0.342021	-2.298982	2.308716	0.237930	-2.298982	1.901295	0.193317	-1.928142	1.765488	0.118955	-1.464639	1.629682	1.487017	-10.696118	12.085067	0.000000	0.000000	7.582047	1.596003	4.605370	94.728900	-6.980235	55.577705	72.794099	89.887397	-6.103506	10.273166	13.125193	-10.945958	-1.819697	106.186565	81.273105	-10.106324	0.100393
7.386364	-1.040038	1.504400	99.922834	0.199471	1.106264	0.461990	-1.435743	0.761855	-1.453093	6.409402	0.111865	20.880717	7.748328	0.000000	-0.457448	-2.586693	-8.864346	6.897937	0.120392	18.951730	14.646256	0.000000	0.213964	-0.978626	2.169132	0.397352	-1.301573	2.304703	0.351521	-2.379432	2.304703	0.244539	-2.379432	1.897991	0.198687	-1.995615	1.762420	0.122259	-1.515892	1.626849	1.528322	-11.070418	12.064062	0.000000	0.000000	8.431515	0.568183	4.694786	91.236379	-8.673930	53.544367	75.232479	86.453479	-7.222793	11.133797	14.618887	-11.349161	-2.384511	107.940835	80.320325	-9.938627	0.250102
7.409091	-0.894654	1.322696	100.579980	0.197752	1.105842	0.462414	-1.259339	0.844279	-1.986512	6.462460	0.112791	20.770861	7.516451	0.000000	-0.194215	-2.655423	-8.261451	6.801691	0.118712	18.748880	14.685764	0.000000	0.212360	-1.007231	2.118995	0.394374	-1.339617	2.251432	0.348886	-2.448980	2.251432	0.242706	-2.448980	1.854120	0.197198	-2.053945	1.721683	0.121343	-1.560200	1.589246	1.516867	-11.393994	11.785213	0.000000	0.000000	9.502834	-0.606079	4.931676	88.533723	-10.180168	51.161044	77.031959	82.053627	-8.431482	12.098570	16.275425	-11.723354	-2.902861	109.660270	79.585749	-9.879108	0.361776
7.431818	-0.760706	1.119709	101.212132	0.196018	1.105466	0.462865	-1.009100	0.907712	-2.529331	6.612685	0.115413	20.683751	7.273930	0.000000	0.105429	-2.710238	-7.670909	6.740223	0.117639	18.541088	14.734251	0.000000	0.205374	-1.032652	2.022906	0.381400	-1.373427	2.149337	0.337409	-2.510790	2.149337	0.234722	-2.510790	1.770043	0.190710	-2.105784	1.643611	0.117351	-1.599578	1.517179	1.466967	-11.681565	11.250795	0.000000	0.000000	10.728092	-1.815715	5.454202	86.713800	-11.327208	48.613327	78.064272	77.491021	-9.514807	13.280585	18.053190	-12.042580	-3.371962	111.265477	79.104368	-9.987042	0.383850
7.454545	-0.641796	0.915793	101.776833	0.194343	1.105172	0.463278	-0.718265	0.950763	-3.042837	6.834468	0.119284	20.618006	7.047499	0.000000	0.401029	-2.749875	-7.119157	6.692095	0.116799	18.328580	14.782168	0.000000	0.195116	-1.054782	1.886689	0.362350	-1.402860	2.004607	0.320556	-2.564597	2.004607	0.222998	-2.564597	1.650853	0.181185	-2.150912	1.532935	0.111489	-1.633858	1.415017	1.393695	-11.931907	10.493197	0.000000	0.000000	12.002767	-2.940663	6.412170	85.668297	-12.109181	46.101937	78.495464	72.919720	-10.439951	14.550629	19.869700	-12.287180	-3.847277	112.750480	78.908585	-10.243460	0.320970
7.477273	-0.528667	0.727745	102.252838	0.192758	1.104986	0.463594	-0.420673	0.986707	-3.485022	7.091111	0.123763	20.553558	6.813250	0.000000	0.665811	-2.785224	-6.644275	6.645325	0.115983	18.117489	14.845891	0.000000	0.185068	-1.072571	1.721426	0.343689	-1.426519	1.829015	0.304048	-2.607849	1.829015	0.211514	-2.607849	1.506248	0.171854	-2.187186	1.398659	0.105748	-1.661412	1.291070	1.321921	-12.133136	9.574057	0.000000	0.000000	13.208215	-3.851631	7.792164	85.242765	-12.614152	43.759033	78.584974	68.799322	-11.047264	15.880779	21.638479	-12.424829	-4.322337	114.107169	78.877487	-10.653833	0.147591
7.500000	-0.425259	0.563249	102.611694	0.191332	1.104914	0.463748	-0.140639	1.014296	-3.828656	7.353338	0.128340	20.493234	6.586399	0.000000	0.879234	-2.814682	-6.264253	6.588420	0.114990	17.917104	14.914737	0.000000	0.177751	-1.088060	1.549739	0.330102	-1.447120	1.646598	0.292027	-2.645510	1.646598	0.203152	-2.645510	1.356022	0.165060	-2.218773	1.259163	0.101567	-1.685406	1.162304	1.269658	-12.308358	8.619185	0.000000	0.000000	14.253584	-4.361224	9.519205	85.387196	-12.948537	41.783825	78.467539	65.277601	-11.295095	17.076529	23.297396	-12.414305	-4.773687	115.296870	78.993939	-11.171653	-0.069096
7.522727	-0.328927	0.447005	102.828138	0.190141	1.104955	0.463696	0.097737	1.041801	-4.064094	7.624714	0.133076	20.465462	6.387226	0.000000	1.009622	-2.846730	-6.005673	6.520692	0.113808	17.758033	14.983127	0.000000	0.172121	-1.102468	1.404198	0.319646	-1.466283	1.491960	0.282778	-2.680541	1.491960	0.196717	-2.680541	1.228673	0.159832	-2.248153	1.140911	0.098350	-1.707723	1.053148	1.229444	-12.471342	7.809726	0.000000	0.000000	15.049180	-4.307437	11.490569	86.054681	-13.231422	40.350839	78.275822	62.550180	-11.437365	18.072542	24.827300	-12.222455	-5.121439	116.224043	79.263451	-11.761443	-0.243143
7.545455	-0.245312	0.385543	102.922493	0.189195	1.105085	0.463407	0.272065	1.069631	-4.193377	7.879891	0.137530	20.478126	6.208898	0.000000	1.047821	-2.880359	-5.857519	6.436636	0.112340	17.644843	15.060684	0.000000	0.168958	-1.119202	1.304563	0.313772	-1.488538	1.386098	0.277581	-2.721227	1.386098	0.193102	-2.721227	1.141493	0.156895	-2.282276	1.059957	0.096543	-1.733644	0.978422	1.206851	-12.660635	7.255588	0.000000	0.000000	15.516406	-3.643500	13.475558	87.083799	-13.585611	39.396714	78.136596	60.710409	-11.354241	18.625045	26.197212	-11.835796	-5.297163	116.787374	79.641155	-12.471025	-0.409431
7.568182	-0.159402	0.381177	102.896468	0.188497	1.105275	0.462877	0.377096	1.116841	-4.197109	8.106880	0.141492	20.519904	6.037950	0.000000	0.992619	-2.932054	-5.833104	6.333245	0.110536	17.582992	15.144043	0.000000	0.169302	-1.137921	1.257237	0.314410	-1.513435	1.335815	0.278146	-2.766741	1.335815	0.193495	-2.766741	1.100083	0.157214	-2.320448	1.021505	0.096739	-1.762639	0.942928	1.209306	-12.872388	6.992376	0.000000	0.000000	15.556198	-2.384130	15.343935	88.265310	-14.059668	38.787116	78.171597	59.810212	-10.977871	18.671674	27.337999	-11.231102	-5.371110	116.945700	80.223574	-13.263601	-0.477022
7.590909	-0.076334	0.438085	102.773908	0.188037	1.105502	0.462143	0.408158	1.178182	-4.130217	8.308904	0.145018	20.595918	5.937608	0.000000	0.848422	-3.000385	-5.915676	6.217899	0.108523	17.570730	15.231665	0.000000	0.169097	-1.160159	1.258022	0.314029	-1.543012	1.336648	0.277809	-2.820811	1.336648	0.193260	-2.820811	1.100769	0.157023	-2.365797	1.022143	0.096622	-1.797087	0.943516	1.207840	-13.123953	6.996741	0.000000	0.000000	15.165883	-0.647796	16.968025	89.471554	-14.656638	38.489666	78.423115	59.878617	-10.439557	18.293104	28.216305	-10.395995	-5.375170	116.676099	80.430388	-14.110826	-0.596186
7.613636	-0.013276	0.554014	102.569241	0.187828	1.105758	0.461241	0.372724	1.237262	-4.014296	8.506447	0.148466	20.711710	5.916559	0.000000	0.625201	-3.069687	-6.095603	6.106462	0.106578	17.592386	15.312204	0.000000	0.165197	-1.190640	1.308827	0.306787	-1.583551	1.390629	0.271402	-2.894921	1.390629	0.188803	-2.894921	1.145224	0.153402	-2.427952	1.063422	0.094393	-1.844301	0.981620	1.179984	-13.468754	7.279305	0.000000	0.000000	14.345844	1.316836	17.971940	90.530139	-15.331543	38.332057	78.790493	61.014494	-9.700477	17.415355	28.853621	-9.310889	-5.328910	115.929646	80.187754	-14.893232	-0.755160
7.636364	0.053510	0.709813	102.289109	0.187836	1.105983	0.460184	0.292731	1.314478	-3.846428	8.695364	0.151763	20.861902	5.973016	0.000000	0.349967	-3.160217	-6.372952	6.003405	0.104779	17.658105	15.388334	0.000000	0.158250	-1.223094	1.392616	0.293886	-1.626715	1.479655	0.259989	-2.973831	1.479655	0.180864	-2.973831	1.218539	0.146951	-2.494134	1.131501	0.090424	-1.894573	1.044462	1.130365	-13.835886	7.745315	0.000000	0.000000	13.167717	3.185275	18.636752	91.391346	-15.912569	38.342516	79.102986	63.091678	-8.961247	16.194721	29.200618	-8.003299	-5.332393	114.811299	79.438146	-15.739590	-1.037390
